<svg width="139" height="41" viewBox="0 0 139 41" fill="none" xmlns="http://www.w3.org/2000/svg">
<path d="M0.00345 0C0.25185 0.0092517 0.50025 0.0264334 0.74865 0.0264334H137.313C137.543 0.0264334 137.773 0.0092517 138.003 0V0.396501C137.62 1.85034 137.223 3.28567 136.853 4.73819C134.652 13.5114 132.459 22.2869 130.273 31.0646C130.137 31.6091 129.884 31.6434 129.487 31.6434C119.484 31.6346 109.479 31.6346 99.4715 31.6434C74.8477 31.6434 50.2236 31.6465 25.599 31.6527C25.2581 31.6623 24.9223 31.75 24.6111 31.9104C19.0474 34.6903 13.4891 37.4791 7.93615 40.2766C7.8154 40.3361 7.6912 40.3876 7.49915 40.4749V31.6725C7.2197 31.658 6.9989 31.6368 6.77925 31.6368C4.72842 31.6368 2.67797 31.6368 0.6279 31.6368C0.4186 31.6368 0.2093 31.6091 0 31.5932L0.00345 0ZM134.688 2.96186H2.5484V28.8124H9.9728V36.001C10.2281 35.8807 10.4029 35.8041 10.5742 35.7195C15.0209 33.5167 19.4676 31.3174 23.9142 29.1217C24.3336 28.9217 24.7828 28.8176 25.2367 28.8151C59.3296 28.8019 93.4229 28.8019 127.517 28.8151C128.035 28.8151 128.27 28.6829 128.424 28.0644C129.998 21.6701 131.609 15.2891 133.208 8.90013C133.705 6.94142 134.189 4.97609 134.688 2.96186Z" fill="black"/>
<path d="M43.4289 9.7804V14.5265H40.4055V16.2103C40.4055 17.3338 40.3963 18.4572 40.4055 19.5806C40.4205 20.9868 41.5153 21.7032 42.579 20.9882C42.7285 20.8877 42.8228 20.6141 42.8746 20.3987C43.6232 17.3258 44.3765 14.2556 45.0826 11.1695C45.2275 10.5377 45.4874 10.3527 46.0175 10.3038C47.4826 10.1716 48.9443 9.97072 50.4784 9.78833C50.3634 10.317 50.2633 10.7637 50.1403 11.3228C51.1224 10.473 52.1321 9.99055 53.2637 9.84384C54.9001 9.63238 55.942 10.2588 56.6895 11.9678C56.9034 11.7814 57.1127 11.6003 57.3197 11.4166C58.7906 10.1188 60.4684 9.63898 62.29 9.82137C64.2071 10.013 65.2973 11.3453 65.4111 13.5696C65.4261 13.8538 65.4111 14.1393 65.4111 14.5781C65.5825 14.3481 65.686 14.2199 65.7791 14.0824C68.1056 10.6739 72.7286 8.94246 76.3499 10.1267C77.6057 10.5364 78.221 11.032 79.4296 12.6299C79.6435 11.8237 79.8643 11.0637 80.0414 10.2892C80.1311 9.89935 80.2921 9.76058 80.6417 9.78305C81.0615 9.81609 81.4858 9.75926 81.9067 9.79891C82.2517 9.83063 82.3748 9.6522 82.4576 9.30857C82.663 8.46094 82.8846 7.61903 83.1223 6.78285C83.1683 6.62293 83.3017 6.38635 83.4121 6.3771C85.0221 6.15638 86.6401 5.96738 88.3513 5.75988C88.0063 7.13045 87.6866 8.40322 87.3439 9.76719H90.3592C89.9268 11.4127 89.522 12.9524 89.1057 14.5384C88.2191 14.5384 87.3589 14.5569 86.4987 14.5292C86.1732 14.5186 86.0237 14.6296 85.9398 14.997C85.6063 16.4681 85.2291 17.9245 84.9048 19.3969C84.6334 20.6326 85.0761 21.2472 86.1882 21.2472C86.8207 21.2472 87.4532 21.2208 88.0857 21.2578C88.4468 21.2789 88.5825 21.1177 88.6779 20.7384C89.3484 18.0527 90.0579 15.379 90.7077 12.6868C90.848 12.1039 91.0527 11.936 91.5679 11.9519C92.9996 11.9942 94.4337 11.9664 95.9494 11.9664C95.7654 12.7291 95.5986 13.4203 95.433 14.1023L95.4963 14.1525C95.6458 13.9529 95.7849 13.7428 95.9459 13.5551C98.7772 10.2509 102.202 9.18301 106.097 10.1267C107.813 10.543 108.794 11.6479 109.591 13.7018C109.832 12.7291 110.075 11.8634 110.255 10.9818C110.344 10.5443 110.505 10.3712 110.897 10.3315C112.439 10.1756 113.977 9.97733 115.597 9.78569C115.429 10.502 115.277 11.1457 115.159 11.6479C116.164 11.2012 117.191 10.6461 118.27 10.2932C119.297 9.97329 120.385 10.025 121.385 10.4412C122.542 10.8946 123.319 11.829 123.378 13.2167C123.441 14.4868 123.342 15.7606 123.086 16.998C122.46 19.833 121.692 22.6257 120.962 25.429C120.91 25.6272 120.697 25.9114 120.555 25.9154C119.006 25.9497 117.457 25.9365 115.818 25.9365C116.163 24.5871 116.487 23.3117 116.816 22.0389C117.208 20.5203 117.606 18.9991 117.998 17.4857C118.07 17.2108 118.14 16.9359 118.19 16.6557C118.472 15.1081 117.723 14.2463 116.377 14.5913C115.05 14.9323 114.256 15.9526 113.872 17.3959C113.178 20.0048 112.506 22.6218 111.857 25.2466C111.722 25.7964 111.52 25.9682 111.034 25.9524C109.79 25.9127 108.543 25.9405 107.298 25.9418H106.673L107.578 22.1314C106.384 23.5891 104.89 24.6796 103.235 25.3034C101.644 25.9048 100.015 26.1295 98.3575 25.844C95.9011 25.4197 94.1496 24.0412 93.6781 20.9736C93.4677 21.7732 93.2561 22.5715 93.0502 23.3711C92.8651 24.0875 92.7052 24.8157 92.4867 25.5189C92.4435 25.6236 92.3793 25.7149 92.2993 25.7855C92.2193 25.856 92.1259 25.9037 92.0267 25.9246C88.8838 25.9431 85.7408 25.9339 82.5967 25.9246C82.386 25.9193 82.1762 25.8914 81.97 25.8413C80.061 25.4197 79.1088 23.9659 79.4158 21.7587C79.5929 20.4833 79.9253 19.2343 80.2208 17.9827C80.4819 16.858 80.7809 15.7464 81.0764 14.5794H80.0104C79.9632 15.3922 79.9839 16.2302 79.8586 17.0377C79.1686 21.4838 76.32 24.7272 72.3307 25.6576C71.0243 25.9629 69.7121 26.0687 68.3919 25.8096C66.1287 25.3761 64.5187 24.0822 63.9863 21.1653C63.6735 22.4116 63.4032 23.4769 63.1399 24.5448C62.7949 25.9484 62.7949 25.9484 61.5299 25.9484H57.7728C58.0201 24.9254 58.2455 23.9818 58.4766 23.0407C58.9769 21.008 59.4909 18.9779 59.9716 16.9399C60.0883 16.4759 60.1418 15.994 60.1303 15.5112C60.0935 14.6931 59.5875 14.2979 58.8964 14.4922C57.8142 14.7961 57.2197 15.6817 56.923 16.8408C56.2606 19.4392 55.6189 22.0429 54.976 24.6466C54.6552 25.9471 54.6632 25.9497 53.481 25.9497H49.7171C49.9367 25.0616 50.138 24.2487 50.3369 23.4385C50.8924 21.1732 51.4524 18.9079 51.9987 16.6386C52.0746 16.3205 52.1159 15.9929 52.1217 15.6632C52.1401 14.6983 51.633 14.2437 50.8153 14.5107C49.7136 14.8702 49.0972 15.8059 48.7867 17.002C48.1416 19.4894 47.5309 21.9887 46.9226 24.488C46.5661 25.951 46.5776 25.955 45.2436 25.955C43.5952 25.955 41.9469 25.955 40.2986 25.955C39.3257 25.955 38.3827 25.7806 37.5386 25.2056C36.093 24.2223 35.5387 22.631 35.4686 20.8137C35.3938 18.9462 35.4352 17.0707 35.4237 15.1993C35.4237 15.0063 35.4088 14.8133 35.3984 14.5847H34.3427C34.7685 16.1952 34.8011 17.9092 34.437 19.5396H25.0852C25.3762 20.4159 25.904 20.8613 26.5434 21.1336C28.0384 21.7613 29.4805 21.5195 30.8709 20.6961C31.0882 20.5639 31.2895 20.4027 31.5241 20.2375L33.9644 23.3791C33.1905 24.2768 32.2387 24.9454 31.1906 25.3272C28.7595 26.2524 26.3272 26.2273 23.9341 25.1395C22.6185 24.5421 21.8641 23.7716 20.8291 22.0997C20.5899 22.5451 20.3909 23.0117 20.1161 23.4108C19.1144 24.8646 17.708 25.4594 16.1842 25.7647C15.6757 25.873 15.1603 25.9323 14.6432 25.9418C11.5187 25.9577 8.39526 25.9497 5.27186 25.9418C5.18206 25.9346 5.09263 25.9223 5.00391 25.9048V5.81539C5.10404 5.78119 5.2069 5.7586 5.31096 5.74799C8.47231 5.75724 11.636 5.74138 14.7962 5.79953C16.2912 5.82729 17.7114 6.28194 18.9224 7.37232C20.5197 8.80898 21.0832 11.7484 20.0793 13.7705C19.7688 14.3944 19.2421 14.8741 18.8085 15.4279L20.0436 16.6002C20.5807 13.0502 22.4276 10.8576 25.4394 10.0765C28.3041 9.33368 30.9594 9.86367 33.2594 12.3696V9.80816H35.3892V6.38635L40.4101 5.75063V9.7804H43.4289ZM72.8263 14.5384C70.8334 14.5239 69.021 16.6253 69.0624 18.8999C69.0877 20.3287 69.8938 21.23 71.1427 21.2248C73.1046 21.2208 74.8687 19.1643 74.8687 16.8897C74.8618 15.4398 74.0902 14.5516 72.8263 14.5384ZM102.594 14.5384C100.605 14.5384 98.7991 16.6531 98.8531 18.9237C98.8842 20.3339 99.6639 21.2168 100.889 21.2248C102.88 21.2393 104.672 19.1643 104.649 16.8632C104.635 15.42 103.861 14.5384 102.594 14.5384ZM9.97996 21.4111C11.5555 21.4111 13.0654 21.4613 14.5719 21.3926C15.5011 21.3503 16.0462 20.5917 16.0589 19.5753C16.0715 18.5589 15.508 17.6866 14.5972 17.6391C13.0735 17.5598 11.5451 17.6179 9.97996 17.6179V21.4111ZM9.97996 13.2815C11.4244 13.2815 12.817 13.3212 14.2074 13.2656C15.0446 13.2326 15.5299 12.5586 15.5379 11.6215C15.5471 10.6646 15.0446 9.87556 14.2453 9.83856C12.8389 9.77247 11.4278 9.82005 9.97996 9.82005V13.2815ZM25.16 15.7491H29.9198C29.6979 14.6071 28.825 13.9741 27.5589 13.9754C26.2927 13.9767 25.3773 14.6349 25.1634 15.7491H25.16Z" fill="black"/>
<path d="M122.9 19.811C123.388 17.9489 123.851 16.1846 124.311 14.419C124.966 11.9079 125.621 9.39691 126.266 6.88589C126.36 6.52245 126.496 6.3665 126.848 6.3295C128.37 6.16694 129.887 5.95549 131.484 5.75064C131.436 6.01496 131.413 6.20263 131.369 6.37972C130.294 10.626 129.207 14.8696 128.149 19.1238C128.011 19.6762 127.804 19.8335 127.32 19.8203C125.883 19.7873 124.447 19.811 122.9 19.811Z" fill="black"/>
<path d="M93.7655 11.379C92.7201 11.3961 91.9646 11.1847 91.5356 10.29C91.0871 9.36498 91.3217 8.45049 91.7783 7.6153C92.5419 6.22242 94.375 5.43216 95.7653 5.86297C96.8509 6.19996 97.3592 7.19902 97.1051 8.49542C96.7762 10.1764 95.2961 11.3724 93.7655 11.379Z" fill="black"/>
<path d="M124.076 25.9649C123.247 25.9649 122.495 25.7297 122.09 24.8205C121.694 23.9351 121.892 23.0496 122.32 22.2501C123.097 20.7806 125.012 19.9851 126.447 20.4912C127.44 20.8414 127.918 21.7625 127.712 22.932C127.402 24.7147 125.899 25.9715 124.076 25.9649Z" fill="black"/>
</svg>
