<svg width="118" height="31" viewBox="0 0 118 31" fill="none" xmlns="http://www.w3.org/2000/svg">
<g clip-path="url(#clip0_127_19213)">
<path d="M8.86081 24.5378C4.01978 24.5378 0 21.0582 0 16.5844V1.35554C0.0255575 0.973062 0.194034 0.616455 0.469021 0.362783C0.744009 0.10911 1.10342 -0.0212566 1.4696 -0.0001449C3.54432 -0.0001449 5.44615 1.58149 5.44615 3.56983V9.30889C6.72367 8.53491 8.16331 8.10044 9.63883 8.04359H15.085C19.8828 8.04359 23.9026 11.5684 23.9026 16.0421V16.5392C23.9026 21.013 19.8828 24.5378 15.085 24.5378H8.86081ZM14.7392 12.6529H10.0278C7.13187 12.6529 5.48938 14.3249 5.48938 16.3585V16.5844C5.48938 18.4372 7.04542 20.0188 9.20659 20.0188H14.7392C16.9004 20.0188 18.4564 18.4824 18.4564 16.5844V16.0873C18.4564 14.1894 16.9004 12.6529 14.7392 12.6529Z" fill="#C42126"/>
<path d="M32.331 24.5379C27.49 24.5379 23.4702 21.1487 23.4702 16.7653V16.2682C23.4702 11.93 27.49 8.49563 32.331 8.49563H38.5552C43.353 8.49563 47.3728 11.8848 47.3728 16.2682V16.7653C47.3728 21.1035 43.353 24.5379 38.5552 24.5379H32.331ZM38.2094 13.0146H32.6336C30.4292 13.0146 28.9164 14.5058 28.9164 16.3134V16.8105C28.9164 18.6181 30.4724 20.1093 32.6336 20.1093H38.1662C40.3274 20.1093 41.8834 18.6181 41.8834 16.8105V16.3134C41.9266 14.5058 40.3274 13.0146 38.2094 13.0146Z" fill="#C42126"/>
<path d="M55.7583 24.5379C50.9172 24.5379 46.8975 21.0131 46.8975 16.5394V16.0875C46.8975 11.6137 50.9172 8.08892 55.7583 8.08892H61.2044C62.6671 8.14043 64.094 8.57553 65.3539 9.35423V3.56997C65.3539 1.58163 67.2557 5.59492e-07 69.3737 5.59492e-07C69.5526 -0.00972237 69.7317 0.0177117 69.9005 0.0807192C70.0693 0.143727 70.2244 0.24106 70.357 0.367101C70.4897 0.493142 70.5971 0.645395 70.6731 0.815071C70.7491 0.984748 70.7923 1.16849 70.8 1.35569V16.5845C70.8 21.0583 66.7802 24.5831 61.9824 24.5831H55.7583V24.5379ZM60.7722 12.6531H56.1041C53.8997 12.6531 52.3868 14.1895 52.3868 16.0875V16.5845C52.3868 18.4373 53.9429 20.019 56.1041 20.019H61.6367C63.7978 20.019 65.3539 18.4825 65.3539 16.5845V16.3586C65.3539 14.3251 63.7114 12.6531 60.7722 12.6531Z" fill="#C42126"/>
<path d="M79.5312 24.5379C74.6902 24.5379 70.6704 21.1487 70.6704 16.7653V16.2682C70.6704 11.93 74.6902 8.49563 79.5312 8.49563H85.7554C90.5532 8.49563 94.573 11.8848 94.573 16.2682V16.7653C94.573 21.1035 90.5532 24.5379 85.7554 24.5379H79.5312ZM85.4096 13.0146H79.877C77.6726 13.0146 76.1598 14.5058 76.1598 16.3134V16.8105C76.1598 18.6181 77.7158 20.1093 79.877 20.1093H85.4096C87.5708 20.1093 89.1268 18.6181 89.1268 16.8105V16.3134C89.1268 14.5058 87.5708 13.0146 85.4096 13.0146Z" fill="#C42126"/>
<path d="M108.405 24.9446H102.958C98.1174 24.9446 94.0977 21.4198 94.0977 16.9913V16.4942C94.0977 12.0656 98.1174 8.54082 102.958 8.54082H109.183C113.98 8.54082 118 12.0656 118 16.4942V23.0466C118 27.4752 113.98 31 109.183 31H101.532C99.7599 31 97.8149 29.4184 97.8149 27.7915C97.8226 27.6043 97.8658 27.4206 97.9418 27.2509C98.0178 27.0813 98.1252 26.929 98.2579 26.803C98.3905 26.6769 98.5456 26.5796 98.7144 26.5166C98.8832 26.4536 99.0623 26.4261 99.2413 26.4359H108.794C110.652 26.4359 112.079 25.2609 112.424 23.7245C111.2 24.4681 109.82 24.887 108.405 24.9446ZM108.837 13.105H103.304C101.1 13.105 99.587 14.6414 99.587 16.4942V16.9913C99.587 18.844 101.143 20.3805 103.304 20.3805H107.972C110.912 20.3805 112.554 18.7085 112.554 16.7201V16.4942C112.554 14.6414 110.998 13.105 108.837 13.105Z" fill="#C42126"/>
</g>
<defs>
<clipPath id="clip0_127_19213">
<rect width="118" height="31" fill="white"/>
</clipPath>
</defs>
</svg>
