<svg width="129" height="30" viewBox="0 0 129 30" fill="none" xmlns="http://www.w3.org/2000/svg">
<path fill-rule="evenodd" clip-rule="evenodd" d="M0.506348 0.570343H9.85095V4.00189H6.86563V19.1848H13.0183V16.1164H16.6771V22.6186H0.506348V19.187H3.07508V4.00521H0.506348V0.570343ZM127.871 11.2126C127.871 11.248 127.871 11.2823 127.871 11.3166C127.877 11.5697 127.832 11.8215 127.739 12.0571C127.645 12.2927 127.505 12.5074 127.327 12.6885C127.148 12.8697 126.935 13.0137 126.7 13.112C126.464 13.2102 126.211 13.2609 125.956 13.2609C125.701 13.2609 125.448 13.2102 125.212 13.112C124.977 13.0137 124.764 12.8697 124.585 12.6885C124.407 12.5074 124.267 12.2927 124.173 12.0571C124.08 11.8215 124.035 11.5697 124.041 11.3166C124.04 11.1292 124.067 10.9426 124.122 10.7631C123.187 10.2694 121.373 10.1045 120.255 10.7631C119.326 11.3166 119.27 12.3959 120.449 12.9571C122.663 14.0109 124.98 13.9213 126.747 15.2873C128.712 16.8071 128.832 19.5557 126.923 21.2316C124.63 23.2429 121.987 23.0027 119.798 22.6706C117.882 22.374 115.529 21.2482 115.481 19.1815V19.1184C115.481 18.5979 115.689 18.0987 116.061 17.7306C116.432 17.3626 116.936 17.1558 117.461 17.1558C117.986 17.1558 118.49 17.3626 118.861 17.7306C119.232 18.0987 119.441 18.5979 119.441 19.1184C119.442 19.2938 119.418 19.4685 119.371 19.6376C120.478 20.1656 122.333 20.3449 123.615 19.9409C125.025 19.4981 125.158 17.9284 123.615 17.3949C121.756 16.7518 119.769 16.4053 118.03 15.4909C114.893 13.8394 115.819 9.66505 118.413 8.44962C122.568 6.50471 127.752 8.22823 127.87 11.217L127.871 11.2126ZM43.661 7.66036C48.4568 7.66036 51.4968 11.0587 51.4968 15.2518C51.4968 19.445 48.3696 22.8433 43.661 22.8433C38.6554 22.8433 35.8253 19.445 35.8253 15.2518C35.8253 11.0587 38.8687 7.66036 43.6655 7.66036H43.661ZM49.6339 13.9401C49.6607 13.9943 49.6618 14.6629 49.6082 14.7559C49.472 14.9917 49.0498 14.746 49.4429 14.3707C49.5517 14.2678 49.6168 14.1277 49.625 13.9788L49.6339 13.9401ZM46.4543 10.2551C46.4922 10.2263 46.4811 10.2617 46.5123 10.3281C46.5606 10.4209 46.601 10.5175 46.633 10.617C46.7022 10.824 46.6754 10.7753 46.6497 10.9868C46.633 11.1329 46.2845 11.0532 46.2845 11.0332C46.2794 10.993 46.2824 10.9521 46.2933 10.9129C46.3043 10.8738 46.3229 10.8372 46.3482 10.8052C46.4397 10.6358 46.3884 10.4731 46.4531 10.2971C46.4554 10.2872 46.4509 10.2562 46.4543 10.2528V10.2551ZM43.5784 10.1444C43.6074 10.2728 43.3952 10.2816 43.2813 10.2252C43.2476 10.2129 43.22 10.1882 43.2042 10.1562C43.1884 10.1243 43.1856 10.0875 43.1964 10.0536C43.1964 10.0381 43.7549 9.42042 43.7604 9.4171C43.6818 9.52882 43.6354 9.65973 43.6264 9.79567C43.6287 9.84438 43.575 10.1255 43.5784 10.1388V10.1444ZM39.5779 10.7056C39.5779 10.8661 39.8359 11.1041 39.5779 11.1484C39.369 11.1882 39.2931 11.1484 39.2875 10.9347C39.2875 10.9347 39.5935 10.2706 39.608 10.2551C39.6056 10.4038 39.5955 10.5523 39.5779 10.7001V10.7056ZM47.4762 17.2377C47.0942 16.9754 46.9177 16.8735 46.9825 16.3732C47.035 15.9935 47.3846 14.9485 47.8648 14.9618C48.4232 14.9762 48.9437 14.5113 49.3781 14.8987C49.8305 15.3028 49.1861 16.2271 49.2799 16.4551C49.4206 16.8071 48.956 17.0772 48.7348 17.251C48.6053 17.3517 48.0848 17.4624 47.8816 17.4071C47.737 17.3761 47.5995 17.3187 47.4762 17.2377ZM46.3269 13.9401C46.5939 13.8205 46.6352 13.8482 46.8854 13.629C47.083 13.4519 47.0283 13.5183 47.1311 13.2848C47.1902 13.0264 47.2117 12.761 47.1947 12.4966C47.1896 12.412 47.1773 12.3279 47.1579 12.2454C47.1087 12.0871 47.1277 12.024 47.0194 11.8469C46.911 11.6697 46.7703 11.3188 46.586 11.2447C46.4811 11.2015 46.442 11.1428 46.2778 11.1849C46.0712 11.238 45.8869 11.4251 45.7741 11.559C45.5574 11.817 45.4949 12.0395 45.3184 12.3417C45.2107 12.566 45.1416 12.8065 45.1141 13.0534C45.1208 13.4829 45.0984 13.3235 45.3564 13.6611C45.4616 13.7887 45.5965 13.889 45.7495 13.9534C45.941 13.9873 46.1373 13.9828 46.3269 13.9401ZM43.8208 12.956C44.2239 12.6472 44.2139 12.3206 44.1469 11.8413C44.1067 11.5546 43.8922 11.352 43.8777 11.1295C43.834 10.865 43.7181 10.6173 43.5427 10.4134C43.2579 10.1521 42.9787 10.596 42.7441 10.793C42.6157 10.9037 42.2974 11.4118 42.275 11.5834C42.2427 11.8513 42.0584 11.7638 42.2058 12.2708C42.2996 12.594 42.7642 12.9693 43.0859 13.0778C43.1049 13.132 43.4667 13.1885 43.5706 13.1165C43.6331 13.0722 43.7336 13.0235 43.8208 12.9582V12.956ZM41.0722 13.6778C41.4787 13.5981 41.4017 13.0988 41.2207 12.8365C40.9639 12.4656 41.3123 12.0029 40.4624 11.5148C39.9632 11.2281 39.7387 10.9082 39.2227 11.5513C39.0999 11.7007 39.2116 12.6793 39.2116 12.9438C39.2116 13.2759 39.3154 13.1929 39.3076 13.5217C39.302 13.7519 39.6036 14.0663 39.789 14.1748C39.9922 14.2921 40.3217 14.3098 40.4769 14.0884C40.607 13.9136 40.7974 13.7923 41.0119 13.7475C41.0336 13.7264 41.0537 13.7038 41.0722 13.68V13.6778ZM43.336 20.1944C43.001 20.0184 42.5598 19.6752 42.1622 19.611C41.395 19.4859 41.1191 19.8324 40.1843 19.8324C39.2495 19.8324 39.4818 19.4084 39.1646 18.6446C39.0284 18.3126 38.8821 17.3163 39.1948 17.0595C39.7532 16.6112 40.3351 15.3426 41.0354 15.1511C41.2643 15.088 42.1366 14.5456 42.3264 14.2777C42.5308 13.9888 42.9418 13.8748 43.3617 13.8748C43.9514 13.8748 44.3669 14.1637 44.6829 14.8223C44.913 15.2983 45.047 15.7743 45.3843 16.3378C45.5898 16.6809 45.7305 17.1757 45.9874 17.5631C46.184 17.8598 46.5045 18.0524 46.6374 18.3137C46.9256 18.8738 46.5458 19.5313 46.2208 20.004C45.9517 20.3914 45.3397 20.6925 44.8728 20.6925C44.4529 20.6925 43.6097 20.3416 43.336 20.1966V20.1944ZM72.8117 7.66036C77.5784 7.66036 80.1214 10.317 80.1214 15.2175C80.1221 15.6438 80.096 16.0697 80.0432 16.4927H69.3216C69.7381 18.2716 71.343 19.5988 73.3198 19.7029C74.7159 19.7759 77.0523 19.6531 78.5802 18.628L79.3552 21.4508C77.8609 22.3363 75.9131 22.8444 73.6839 22.8444C68.6905 22.8444 65.5064 19.8047 65.5064 15.2186C65.502 11.0432 68.3745 7.66036 72.8117 7.66036ZM76.4973 13.9545C76.2538 11.869 75.3 10.6635 73.0228 10.6635C70.7232 10.6635 69.6164 12.1402 69.2869 13.9545H76.4973ZM26.5622 7.66036C31.3289 7.66036 33.8719 10.317 33.8719 15.2175C33.8729 15.6438 33.8464 16.0698 33.7926 16.4927H23.071C23.4876 18.2716 25.0925 19.5988 27.0682 19.7029C28.4653 19.7759 30.8017 19.6531 32.3285 18.628L33.1103 21.4508C31.6159 22.3363 29.667 22.8444 27.4389 22.8444C22.4456 22.8444 19.2603 19.8047 19.2603 15.2186C19.2514 11.0432 22.1239 7.66036 26.5622 7.66036ZM30.2478 13.9545C30.001 11.869 29.0483 10.6635 26.77 10.6635C24.4704 10.6635 23.3636 12.1402 23.0341 13.9545H30.2478ZM58.5776 15.9547L63.3554 4.01739H60.9475V0.58584H69.6912V4.01739H67.6519L59.6408 22.8433H57.3837L49.4083 4.01739H47.3645V0.58584H56.1071V4.01739H53.7997L58.5776 15.9547ZM92.3597 22.8433V20.4445C91.1245 21.6002 89.7463 22.3607 88.1816 22.3518C84.6669 22.3297 81.3622 19.6675 81.3622 15.4234C81.3622 10.8561 84.2504 7.62162 88.2006 7.70021C89.7553 7.73121 91.1435 8.07436 92.4915 9.22559V7.91386H98.1874V11.0034H96.0163V22.8477C96.0163 26.2538 94.0294 28.4932 91.0206 29.1164C88.5636 29.6289 82.6522 29.0743 82.5327 25.6085C82.5327 25.5742 82.5327 25.5387 82.5327 25.4978C82.5302 25.2097 82.5897 24.9243 82.7074 24.6609C82.8251 24.3974 82.9981 24.1619 83.215 23.97C83.4318 23.7782 83.6875 23.6344 83.9649 23.5483C84.2424 23.4622 84.5351 23.4358 84.8237 23.4708C85.1122 23.5058 85.3899 23.6015 85.6381 23.7514C85.8864 23.9013 86.0995 24.102 86.2632 24.3401C86.4269 24.5782 86.5375 24.8482 86.5875 25.132C86.6375 25.4158 86.6259 25.7069 86.5533 25.9859C90.9212 27.208 92.3597 24.8823 92.3597 22.8433ZM92.3597 17.7845V11.9575C88.6217 9.61303 85.1695 11.1517 85.1695 15.2518C85.1695 19.352 89.9317 20.3538 92.3597 17.7845ZM108.916 18.8915V16.6233C106.967 16.0699 102.938 15.8142 102.938 18.3303C102.938 20.9139 106.507 20.5929 108.916 18.8937V18.8915ZM108.916 14.7626V13.0545C108.949 10.9203 105.773 9.92851 104.032 10.7521C104.119 11.0305 104.145 11.3245 104.108 11.6138C104.07 11.9031 103.97 12.1809 103.814 12.4283C103.658 12.6756 103.45 12.8866 103.204 13.0468C102.958 13.2071 102.68 13.3128 102.389 13.3566C102.098 13.4005 101.801 13.3816 101.518 13.3011C101.235 13.2206 100.973 13.0805 100.75 12.8903C100.527 12.7002 100.348 12.4645 100.225 12.1993C100.102 11.9342 100.039 11.646 100.039 11.3543V11.2834C100.093 8.93114 102.849 7.698 106.05 7.698C110.011 7.698 112.38 9.57982 112.38 13.0512V19.5966H114.614V22.5743H108.918V21.0246C107.329 22.3529 105.036 23.0857 103.305 22.8311C100.953 22.4869 99.1981 21.3412 99.1981 18.6911C99.1981 16.2658 101.133 14.8389 103.577 14.4703C105.371 14.1936 107.947 14.4205 108.916 14.7648V14.7626Z" fill="#6A3A3C"/>
</svg>
